<svg xmlns="http://www.w3.org/2000/svg" width="1024" height="1024" viewBox="0 0 1024 1024" fill="none">
  <title>Check brand mark</title>
  <path d="M 465.28 91.48 L 462.53 94.23 L 459.78 94.23 L 457.03 94.23 L 454.28 94.23 L 451.53 94.23 L 448.79 94.23 L 446.04 96.98 L 443.29 96.98 L 440.54 96.98 L 437.79 96.98 L 435.04 96.98 L 432.29 96.98 L 429.55 99.73 L 426.80 99.73 L 424.05 99.73 L 421.30 99.73 L 418.55 102.48 L 415.80 102.48 L 413.06 102.48 L 410.31 102.48 L 407.56 102.48 L 404.81 105.23 L 402.06 105.23 L 399.31 105.23 L 396.56 107.98 L 393.82 107.98 L 391.07 107.98 L 388.32 107.98 L 385.57 110.72 L 382.82 110.72 L 380.07 110.72 L 377.33 113.47 L 374.58 113.47 L 371.83 116.22 L 369.08 116.22 L 366.33 116.22 L 363.58 118.97 L 360.83 118.97 L 358.09 121.72 L 355.34 121.72 L 352.59 121.72 L 349.84 124.47 L 347.09 124.47 L 344.34 127.21 L 341.60 127.21 L 338.85 127.21 L 336.10 129.96 L 333.35 129.96 L 330.60 132.71 L 327.85 132.71 L 325.10 135.46 L 322.36 135.46 L 319.61 138.21 L 316.86 138.21 L 314.11 140.96 L 311.36 140.96 L 308.61 143.71 L 305.87 143.71 L 303.12 146.45 L 300.37 149.20 L 297.62 149.20 L 294.87 151.95 L 292.12 151.95 L 289.37 154.70 L 286.63 157.45 L 283.88 157.45 L 281.13 160.20 L 278.38 162.94 L 275.63 162.94 L 272.88 165.69 L 270.13 168.44 L 267.39 171.19 L 264.64 171.19 L 261.89 173.94 L 259.14 176.69 L 256.39 179.44 L 253.64 182.18 L 250.90 182.18 L 248.15 184.93 L 245.40 187.68 L 242.65 190.43 L 239.90 190.43 L 237.15 193.18 L 234.40 195.93 L 231.66 198.67 L 228.91 201.42 L 226.16 201.42 L 226.16 204.17 L 223.41 206.92 L 220.66 209.67 L 217.91 212.42 L 215.17 212.42 L 215.17 215.17 L 212.42 217.91 L 209.67 220.66 L 206.92 223.41 L 204.17 226.16 L 201.42 228.91 L 198.67 231.66 L 195.93 234.40 L 193.18 237.15 L 193.18 239.90 L 190.43 242.65 L 187.68 245.40 L 184.93 248.15 L 182.18 250.90 L 182.18 253.64 L 179.44 256.39 L 176.69 259.14 L 176.69 261.89 L 173.94 264.64 L 171.19 267.39 L 168.44 270.13 L 168.44 272.88 L 165.69 275.63 L 162.94 278.38 L 160.20 281.13 L 160.20 283.88 L 157.45 286.63 L 157.45 289.37 L 154.70 292.12 L 151.95 294.87 L 151.95 297.62 L 149.20 300.37 L 149.20 303.12 L 146.45 305.87 L 146.45 308.61 L 143.71 311.36 L 143.71 314.11 L 140.96 316.86 L 140.96 319.61 L 138.21 322.36 L 138.21 325.10 L 135.46 327.85 L 132.71 330.60 L 132.71 333.35 L 132.71 336.10 L 129.96 338.85 L 129.96 341.60 L 127.21 344.34 L 127.21 347.09 L 127.21 349.84 L 124.47 352.59 L 124.47 355.34 L 121.72 358.09 L 121.72 360.83 L 118.97 363.58 L 118.97 366.33 L 118.97 369.08 L 116.22 371.83 L 116.22 374.58 L 116.22 377.33 L 116.22 380.07 L 113.47 382.82 L 113.47 385.57 L 110.72 388.32 L 110.72 391.07 L 110.72 393.82 L 107.98 396.56 L 107.98 399.31 L 107.98 402.06 L 107.98 404.81 L 105.23 407.56 L 105.23 410.31 L 105.23 413.06 L 105.23 415.80 L 105.23 418.55 L 102.48 421.30 L 102.48 424.05 L 102.48 426.80 L 102.48 429.55 L 102.48 432.29 L 99.73 435.04 L 99.73 437.79 L 99.73 440.54 L 99.73 443.29 L 99.73 446.04 L 96.98 448.79 L 96.98 451.53 L 96.98 454.28 L 96.98 457.03 L 96.98 459.78 L 96.98 462.53 L 96.98 465.28 L 94.23 468.02 L 94.23 470.77 L 94.23 473.52 L 94.23 476.27 L 94.23 479.02 L 94.23 481.77 L 94.23 484.52 L 94.23 487.26 L 94.23 490.01 L 94.23 492.76 L 94.23 495.51 L 94.23 498.26 L 94.23 501.01 L 94.23 503.75 L 94.23 506.50 L 94.23 509.25 L 94.23 512.00 L 94.23 514.75 L 94.23 517.50 L 94.23 520.25 L 94.23 522.99 L 94.23 525.74 L 94.23 528.49 L 94.23 531.24 L 94.23 533.99 L 94.23 536.74 L 94.23 539.48 L 94.23 542.23 L 94.23 544.98 L 94.23 547.73 L 94.23 550.48 L 94.23 553.23 L 94.23 555.98 L 94.23 558.72 L 94.23 561.47 L 96.98 564.22 L 96.98 566.97 L 96.98 569.72 L 96.98 572.47 L 96.98 575.21 L 96.98 577.96 L 96.98 580.71 L 99.73 583.46 L 99.73 586.21 L 99.73 588.96 L 99.73 591.71 L 99.73 594.45 L 102.48 597.20 L 102.48 599.95 L 102.48 602.70 L 102.48 605.45 L 102.48 608.20 L 105.23 610.94 L 105.23 613.69 L 105.23 616.44 L 105.23 619.19 L 107.98 621.94 L 107.98 624.69 L 107.98 627.44 L 107.98 630.18 L 110.72 632.93 L 110.72 635.68 L 113.47 638.43 L 113.47 641.18 L 113.47 643.93 L 116.22 646.67 L 116.22 649.42 L 116.22 652.17 L 118.97 654.92 L 118.97 657.67 L 118.97 660.42 L 121.72 663.17 L 121.72 665.91 L 124.47 668.66 L 124.47 671.41 L 127.21 674.16 L 127.21 676.91 L 127.21 679.66 L 129.96 682.40 L 129.96 685.15 L 132.71 687.90 L 132.71 690.65 L 135.46 693.40 L 135.46 696.15 L 138.21 698.90 L 140.96 701.64 L 140.96 704.39 L 140.96 707.14 L 143.71 709.89 L 143.71 712.64 L 146.45 715.39 L 146.45 718.13 L 149.20 720.88 L 151.95 723.63 L 151.95 726.38 L 154.70 729.13 L 154.70 731.88 L 157.45 734.63 L 160.20 737.37 L 162.94 740.12 L 162.94 742.87 L 165.69 745.62 L 165.69 748.37 L 168.44 751.12 L 171.19 753.87 L 173.94 756.61 L 173.94 759.36 L 176.69 762.11 L 179.44 764.86 L 182.18 767.61 L 182.18 770.36 L 184.93 773.10 L 187.68 775.85 L 190.43 778.60 L 193.18 781.35 L 195.93 784.10 L 195.93 786.85 L 198.67 789.60 L 201.42 792.34 L 204.17 795.09 L 206.92 797.84 L 209.67 800.59 L 212.42 803.34 L 215.17 806.09 L 217.91 808.83 L 220.66 811.58 L 223.41 814.33 L 226.16 817.08 L 228.91 819.83 L 231.66 822.58 L 234.40 822.58 L 237.15 825.33 L 239.90 828.07 L 242.65 830.82 L 245.40 833.57 L 248.15 836.32 L 250.90 836.32 L 253.64 839.07 L 256.39 841.82 L 259.14 844.56 L 261.89 847.31 L 264.64 850.06 L 267.39 850.06 L 270.13 852.81 L 272.88 855.56 L 275.63 858.31 L 278.38 858.31 L 281.13 861.06 L 283.88 861.06 L 286.63 863.80 L 289.37 866.55 L 292.12 866.55 L 294.87 869.30 L 297.62 869.30 L 300.37 872.05 L 303.12 874.80 L 305.87 874.80 L 308.61 877.55 L 311.36 877.55 L 314.11 880.29 L 316.86 883.04 L 319.61 883.04 L 322.36 885.79 L 325.10 885.79 L 327.85 885.79 L 330.60 888.54 L 333.35 888.54 L 336.10 891.29 L 338.85 894.04 L 341.60 894.04 L 344.34 894.04 L 347.09 896.79 L 349.84 896.79 L 352.59 899.53 L 355.34 899.53 L 358.09 902.28 L 360.83 902.28 L 363.58 902.28 L 366.33 905.03 L 369.08 905.03 L 371.83 907.78 L 374.58 907.78 L 377.33 907.78 L 380.07 910.53 L 382.82 910.53 L 385.57 910.53 L 388.32 910.53 L 391.07 913.28 L 393.82 913.28 L 396.56 913.28 L 399.31 916.02 L 402.06 916.02 L 404.81 916.02 L 407.56 916.02 L 410.31 918.77 L 413.06 918.77 L 415.80 918.77 L 418.55 918.77 L 421.30 921.52 L 424.05 921.52 L 426.80 921.52 L 429.55 921.52 L 432.29 921.52 L 435.04 924.27 L 437.79 924.27 L 440.54 924.27 L 443.29 924.27 L 446.04 924.27 L 448.79 924.27 L 451.53 927.02 L 454.28 927.02 L 457.03 927.02 L 459.78 927.02 L 462.53 927.02 L 465.28 929.77 L 468.02 929.77 L 470.77 929.77 L 473.52 929.77 L 476.27 929.77 L 479.02 929.77 L 481.77 929.77 L 484.52 929.77 L 487.26 929.77 L 490.01 929.77 L 492.76 929.77 L 495.51 929.77 L 498.26 929.77 L 501.01 929.77 L 503.75 929.77 L 506.50 929.77 L 509.25 929.77 L 512.00 929.77 L 514.75 929.77 L 517.50 929.77 L 520.25 929.77 L 522.99 929.77 L 525.74 929.77 L 528.49 929.77 L 531.24 929.77 L 533.99 929.77 L 536.74 929.77 L 539.48 929.77 L 542.23 929.77 L 544.98 929.77 L 547.73 929.77 L 550.48 929.77 L 553.23 929.77 L 555.98 927.02 L 558.72 927.02 L 561.47 927.02 L 564.22 927.02 L 566.97 927.02 L 569.72 927.02 L 572.47 927.02 L 575.21 924.27 L 577.96 924.27 L 580.71 924.27 L 583.46 924.27 L 586.21 924.27 L 588.96 921.52 L 591.71 921.52 L 594.45 921.52 L 597.20 921.52 L 599.95 921.52 L 602.70 921.52 L 605.45 918.77 L 608.20 918.77 L 610.94 918.77 L 613.69 918.77 L 616.44 916.02 L 619.19 916.02 L 621.94 916.02 L 624.69 916.02 L 627.44 913.28 L 630.18 913.28 L 632.93 913.28 L 635.68 910.53 L 638.43 910.53 L 641.18 910.53 L 643.93 907.78 L 646.67 907.78 L 649.42 907.78 L 652.17 907.78 L 654.92 905.03 L 657.67 905.03 L 660.42 902.28 L 663.17 902.28 L 665.91 899.53 L 668.66 899.53 L 671.41 896.79 L 674.16 896.79 L 676.91 896.79 L 679.66 894.04 L 682.40 894.04 L 685.15 894.04 L 687.90 891.29 L 690.65 891.29 L 693.40 888.54 L 696.15 888.54 L 698.90 885.79 L 701.64 885.79 L 704.39 883.04 L 707.14 883.04 L 709.89 880.29 L 712.64 880.29 L 715.39 877.55 L 718.13 877.55 L 720.88 874.80 L 723.63 872.05 L 726.38 872.05 L 729.13 869.30 L 731.88 866.55 L 734.63 866.55 L 737.37 863.80 L 740.12 861.06 L 742.87 861.06 L 745.62 858.31 L 748.37 858.31 L 751.12 855.56 L 753.87 852.81 L 756.61 850.06 L 759.36 850.06 L 762.11 847.31 L 764.86 844.56 L 767.61 844.56 L 770.36 841.82 L 773.10 839.07 L 775.85 836.32 L 778.60 833.57 L 781.35 830.82 L 784.10 828.07 L 786.85 828.07 L 789.60 825.33 L 792.34 822.58 L 795.09 819.83 L 797.84 817.08 L 800.59 814.33 L 803.34 811.58 L 806.09 808.83 L 808.83 806.09 L 811.58 803.34 L 814.33 800.59 L 817.08 797.84 L 819.83 795.09 L 822.58 792.34 L 825.33 789.60 L 828.07 786.85 L 830.82 784.10 L 833.57 781.35 L 833.57 778.60 L 836.32 775.85 L 839.07 773.10 L 841.82 770.36 L 841.82 767.61 L 844.56 764.86 L 847.31 762.11 L 850.06 759.36 L 852.81 756.61 L 852.81 753.87 L 855.56 751.12 L 858.31 748.37 L 858.31 745.62 L 861.06 742.87 L 863.80 740.12 L 863.80 737.37 L 866.55 734.63 L 869.30 731.88 L 869.30 729.13 L 872.05 726.38 L 872.05 723.63 L 874.80 720.88 L 877.55 718.13 L 877.55 715.39 L 880.29 712.64 L 880.29 709.89 L 883.04 707.14 L 883.04 704.39 L 885.79 701.64 L 888.54 698.90 L 888.54 696.15 L 888.54 693.40 L 891.29 690.65 L 891.29 687.90 L 894.04 685.15 L 894.04 682.40 L 896.79 679.66 L 896.79 676.91 L 899.53 674.16 L 899.53 671.41 L 899.53 668.66 L 902.28 665.91 L 902.28 663.17 L 902.28 660.42 L 905.03 657.67 L 905.03 654.92 L 907.78 652.17 L 907.78 649.42 L 907.78 646.67 L 907.78 643.93 L 910.53 641.18 L 910.53 638.43 L 910.53 635.68 L 913.28 632.93 L 913.28 630.18 L 913.28 627.44 L 916.02 624.69 L 916.02 621.94 L 916.02 619.19 L 916.02 616.44 L 916.02 613.69 L 918.77 610.94 L 918.77 608.20 L 918.77 605.45 L 918.77 602.70 L 921.52 599.95 L 921.52 597.20 L 921.52 594.45 L 921.52 591.71 L 921.52 588.96 L 924.27 586.21 L 924.27 583.46 L 924.27 580.71 L 924.27 577.96 L 924.27 575.21 L 924.27 572.47 L 924.27 569.72 L 924.27 566.97 L 927.02 564.22 L 927.02 561.47 L 927.02 558.72 L 927.02 555.98 L 927.02 553.23 L 927.02 550.48 L 927.02 547.73 L 927.02 544.98 L 927.02 542.23 L 927.02 539.48 L 927.02 536.74 L 927.02 533.99 L 927.02 531.24 L 927.02 528.49 L 927.02 525.74 L 927.02 522.99 L 927.02 520.25 L 927.02 517.50 L 927.02 514.75 L 927.02 512.00 L 927.02 509.25 L 927.02 506.50 L 927.02 503.75 L 927.02 501.01 L 927.02 498.26 L 927.02 495.51 L 927.02 492.76 L 927.02 490.01 L 927.02 487.26 L 927.02 484.52 L 924.27 481.77 L 924.27 479.02 L 924.27 476.27 L 924.27 473.52 L 924.27 470.77 L 924.27 468.02 L 924.27 465.28 L 924.27 462.53 L 924.27 459.78 L 924.27 457.03 L 921.52 454.28 L 921.52 451.53 L 921.52 448.79 L 921.52 446.04 L 918.77 443.29 L 918.77 440.54 L 918.77 437.79 L 916.02 435.04 L 916.02 432.29 L 916.02 429.55 L 916.02 426.80 L 916.02 424.05 L 913.28 421.30 L 910.53 424.05 L 907.78 426.80 L 905.03 426.80 L 902.28 429.55 L 899.53 432.29 L 896.79 435.04 L 894.04 437.79 L 891.29 440.54 L 888.54 443.29 L 885.79 446.04 L 883.04 448.79 L 880.29 451.53 L 877.55 454.28 L 874.80 457.03 L 872.05 459.78 L 869.30 462.53 L 866.55 465.28 L 863.80 468.02 L 861.06 468.02 L 858.31 470.77 L 855.56 473.52 L 852.81 476.27 L 850.06 479.02 L 847.31 481.77 L 844.56 484.52 L 841.82 487.26 L 839.07 490.01 L 836.32 492.76 L 833.57 495.51 L 830.82 498.26 L 828.07 501.01 L 825.33 503.75 L 822.58 506.50 L 819.83 509.25 L 817.08 512.00 L 814.33 514.75 L 811.58 517.50 L 808.83 520.25 L 806.09 522.99 L 803.34 525.74 L 800.59 528.49 L 797.84 531.24 L 795.09 531.24 L 792.34 533.99 L 789.60 536.74 L 786.85 539.48 L 784.10 542.23 L 781.35 544.98 L 778.60 547.73 L 775.85 550.48 L 773.10 553.23 L 770.36 555.98 L 767.61 558.72 L 764.86 561.47 L 762.11 564.22 L 759.36 566.97 L 756.61 569.72 L 753.87 572.47 L 751.12 575.21 L 748.37 577.96 L 745.62 580.71 L 742.87 583.46 L 740.12 586.21 L 737.37 588.96 L 734.63 591.71 L 731.88 594.45 L 729.13 597.20 L 726.38 599.95 L 723.63 599.95 L 720.88 602.70 L 718.13 605.45 L 715.39 608.20 L 712.64 610.94 L 709.89 613.69 L 707.14 616.44 L 704.39 619.19 L 701.64 621.94 L 698.90 624.69 L 696.15 627.44 L 693.40 630.18 L 690.65 632.93 L 687.90 635.68 L 685.15 638.43 L 682.40 641.18 L 679.66 643.93 L 676.91 646.67 L 674.16 649.42 L 671.41 652.17 L 668.66 654.92 L 665.91 657.67 L 663.17 660.42 L 660.42 663.17 L 657.67 663.17 L 657.67 665.91 L 654.92 668.66 L 652.17 671.41 L 649.42 671.41 L 646.67 674.16 L 643.93 676.91 L 641.18 679.66 L 638.43 682.40 L 635.68 685.15 L 632.93 687.90 L 630.18 690.65 L 627.44 693.40 L 624.69 696.15 L 621.94 698.90 L 619.19 701.64 L 616.44 704.39 L 613.69 707.14 L 610.94 709.89 L 608.20 712.64 L 605.45 715.39 L 602.70 718.13 L 599.95 720.88 L 597.20 720.88 L 594.45 723.63 L 594.45 726.38 L 591.71 729.13 L 588.96 731.88 L 586.21 731.88 L 583.46 734.63 L 580.71 737.37 L 577.96 740.12 L 575.21 742.87 L 572.47 745.62 L 569.72 748.37 L 566.97 751.12 L 564.22 753.87 L 561.47 756.61 L 558.72 759.36 L 555.98 762.11 L 553.23 764.86 L 550.48 767.61 L 547.73 770.36 L 544.98 773.10 L 542.23 775.85 L 539.48 778.60 L 536.74 778.60 L 533.99 781.35 L 531.24 784.10 L 528.49 786.85 L 525.74 789.60 L 522.99 792.34 L 520.25 795.09 L 517.50 797.84 L 514.75 800.59 L 512.00 803.34 L 509.25 806.09 L 506.50 808.83 L 503.75 811.58 L 501.01 811.58 L 498.26 814.33 L 495.51 814.33 L 492.76 814.33 L 490.01 817.08 L 487.26 817.08 L 484.52 817.08 L 481.77 817.08 L 479.02 814.33 L 476.27 814.33 L 473.52 814.33 L 470.77 811.58 L 468.02 811.58 L 465.28 808.83 L 462.53 806.09 L 459.78 803.34 L 457.03 800.59 L 454.28 797.84 L 451.53 795.09 L 448.79 792.34 L 446.04 789.60 L 443.29 786.85 L 440.54 784.10 L 437.79 781.35 L 435.04 778.60 L 432.29 775.85 L 429.55 773.10 L 426.80 770.36 L 424.05 767.61 L 421.30 764.86 L 418.55 762.11 L 415.80 759.36 L 413.06 759.36 L 410.31 756.61 L 410.31 753.87 L 407.56 753.87 L 404.81 751.12 L 402.06 748.37 L 399.31 745.62 L 396.56 742.87 L 393.82 740.12 L 391.07 737.37 L 388.32 734.63 L 385.57 731.88 L 382.82 729.13 L 380.07 726.38 L 377.33 723.63 L 374.58 720.88 L 371.83 718.13 L 369.08 715.39 L 366.33 712.64 L 363.58 709.89 L 360.83 707.14 L 358.09 704.39 L 355.34 701.64 L 352.59 698.90 L 349.84 696.15 L 347.09 693.40 L 344.34 690.65 L 341.60 687.90 L 338.85 685.15 L 336.10 682.40 L 333.35 679.66 L 330.60 679.66 L 327.85 676.91 L 327.85 674.16 L 325.10 671.41 L 322.36 671.41 L 319.61 668.66 L 316.86 665.91 L 314.11 663.17 L 311.36 660.42 L 308.61 657.67 L 305.87 654.92 L 303.12 652.17 L 300.37 649.42 L 297.62 646.67 L 294.87 643.93 L 292.12 641.18 L 289.37 638.43 L 286.63 635.68 L 283.88 632.93 L 281.13 630.18 L 278.38 627.44 L 275.63 624.69 L 272.88 621.94 L 270.13 619.19 L 267.39 616.44 L 264.64 613.69 L 261.89 610.94 L 259.14 608.20 L 256.39 605.45 L 253.64 602.70 L 250.90 599.95 L 248.15 597.20 L 245.40 594.45 L 242.65 591.71 L 239.90 588.96 L 237.15 588.96 L 234.40 586.21 L 231.66 583.46 L 228.91 580.71 L 226.16 577.96 L 223.41 575.21 L 220.66 572.47 L 217.91 569.72 L 215.17 566.97 L 212.42 564.22 L 209.67 561.47 L 206.92 558.72 L 204.17 555.98 L 201.42 553.23 L 198.67 550.48 L 195.93 547.73 L 193.18 544.98 L 193.18 542.23 L 193.18 539.48 L 193.18 536.74 L 193.18 533.99 L 193.18 531.24 L 193.18 528.49 L 193.18 525.74 L 193.18 522.99 L 193.18 520.25 L 195.93 517.50 L 198.67 514.75 L 201.42 512.00 L 204.17 509.25 L 206.92 506.50 L 209.67 503.75 L 212.42 501.01 L 215.17 498.26 L 217.91 495.51 L 220.66 492.76 L 223.41 490.01 L 226.16 487.26 L 228.91 484.52 L 231.66 481.77 L 234.40 479.02 L 237.15 476.27 L 239.90 473.52 L 242.65 470.77 L 245.40 468.02 L 248.15 465.28 L 250.90 462.53 L 253.64 459.78 L 256.39 457.03 L 259.14 454.28 L 261.89 451.53 L 264.64 448.79 L 267.39 446.04 L 270.13 446.04 L 270.13 443.29 L 272.88 440.54 L 275.63 437.79 L 278.38 435.04 L 281.13 432.29 L 283.88 429.55 L 286.63 429.55 L 289.37 426.80 L 292.12 424.05 L 294.87 421.30 L 297.62 418.55 L 300.37 415.80 L 303.12 413.06 L 305.87 410.31 L 308.61 407.56 L 311.36 404.81 L 314.11 402.06 L 316.86 402.06 L 319.61 399.31 L 322.36 399.31 L 325.10 399.31 L 327.85 399.31 L 330.60 399.31 L 333.35 399.31 L 336.10 399.31 L 338.85 402.06 L 341.60 402.06 L 344.34 404.81 L 347.09 407.56 L 349.84 410.31 L 352.59 413.06 L 355.34 415.80 L 358.09 418.55 L 360.83 421.30 L 363.58 424.05 L 366.33 426.80 L 369.08 429.55 L 371.83 432.29 L 374.58 435.04 L 377.33 437.79 L 380.07 440.54 L 382.82 443.29 L 385.57 446.04 L 388.32 448.79 L 391.07 451.53 L 393.82 454.28 L 396.56 454.28 L 399.31 457.03 L 399.31 459.78 L 402.06 459.78 L 404.81 462.53 L 407.56 465.28 L 410.31 468.02 L 410.31 470.77 L 413.06 473.52 L 415.80 476.27 L 418.55 479.02 L 421.30 481.77 L 424.05 481.77 L 426.80 484.52 L 429.55 487.26 L 432.29 490.01 L 435.04 492.76 L 437.79 495.51 L 440.54 498.26 L 443.29 501.01 L 446.04 503.75 L 448.79 506.50 L 451.53 509.25 L 454.28 512.00 L 457.03 514.75 L 459.78 517.50 L 462.53 520.25 L 465.28 522.99 L 468.02 525.74 L 470.77 528.49 L 473.52 531.24 L 476.27 533.99 L 479.02 536.74 L 481.77 539.48 L 484.52 539.48 L 487.26 542.23 L 490.01 544.98 L 492.76 547.73 L 495.51 550.48 L 498.26 553.23 L 501.01 555.98 L 503.75 553.23 L 506.50 550.48 L 509.25 547.73 L 512.00 544.98 L 514.75 544.98 L 514.75 542.23 L 517.50 539.48 L 520.25 539.48 L 522.99 536.74 L 525.74 533.99 L 528.49 531.24 L 531.24 528.49 L 533.99 525.74 L 536.74 522.99 L 539.48 520.25 L 542.23 517.50 L 544.98 514.75 L 547.73 512.00 L 550.48 509.25 L 553.23 506.50 L 555.98 503.75 L 558.72 501.01 L 561.47 498.26 L 564.22 495.51 L 566.97 492.76 L 569.72 490.01 L 572.47 487.26 L 575.21 484.52 L 577.96 481.77 L 580.71 479.02 L 583.46 479.02 L 586.21 476.27 L 586.21 473.52 L 588.96 470.77 L 591.71 468.02 L 594.45 465.28 L 597.20 462.53 L 599.95 462.53 L 602.70 459.78 L 605.45 457.03 L 608.20 454.28 L 610.94 451.53 L 613.69 448.79 L 616.44 446.04 L 619.19 443.29 L 621.94 440.54 L 624.69 437.79 L 627.44 435.04 L 630.18 432.29 L 632.93 429.55 L 635.68 426.80 L 638.43 424.05 L 641.18 421.30 L 643.93 418.55 L 646.67 415.80 L 649.42 413.06 L 652.17 410.31 L 654.92 407.56 L 657.67 404.81 L 660.42 402.06 L 663.17 399.31 L 665.91 396.56 L 668.66 393.82 L 671.41 391.07 L 674.16 388.32 L 676.91 385.57 L 679.66 382.82 L 682.40 380.07 L 685.15 377.33 L 687.90 374.58 L 690.65 371.83 L 693.40 369.08 L 696.15 366.33 L 698.90 363.58 L 701.64 360.83 L 704.39 358.09 L 707.14 355.34 L 709.89 355.34 L 709.89 352.59 L 712.64 349.84 L 715.39 347.09 L 718.13 347.09 L 720.88 344.34 L 723.63 341.60 L 726.38 338.85 L 729.13 336.10 L 731.88 333.35 L 734.63 330.60 L 737.37 327.85 L 740.12 325.10 L 742.87 322.36 L 745.62 319.61 L 748.37 316.86 L 751.12 314.11 L 753.87 311.36 L 756.61 308.61 L 759.36 305.87 L 762.11 303.12 L 764.86 300.37 L 767.61 297.62 L 770.36 294.87 L 773.10 292.12 L 775.85 289.37 L 778.60 286.63 L 781.35 283.88 L 784.10 281.13 L 786.85 278.38 L 789.60 275.63 L 792.34 272.88 L 795.09 270.13 L 797.84 267.39 L 800.59 264.64 L 803.34 261.89 L 806.09 259.14 L 808.83 259.14 L 811.58 256.39 L 811.58 253.64 L 814.33 250.90 L 817.08 250.90 L 817.08 248.15 L 819.83 245.40 L 822.58 242.65 L 822.58 239.90 L 822.58 237.15 L 819.83 234.40 L 817.08 231.66 L 814.33 228.91 L 811.58 226.16 L 811.58 223.41 L 808.83 223.41 L 806.09 220.66 L 806.09 217.91 L 803.34 215.17 L 800.59 212.42 L 797.84 209.67 L 795.09 206.92 L 792.34 204.17 L 789.60 201.42 L 786.85 198.67 L 784.10 195.93 L 781.35 193.18 L 778.60 190.43 L 775.85 190.43 L 773.10 187.68 L 770.36 184.93 L 767.61 182.18 L 764.86 179.44 L 762.11 176.69 L 759.36 176.69 L 756.61 173.94 L 753.87 171.19 L 751.12 168.44 L 748.37 168.44 L 745.62 165.69 L 742.87 162.94 L 740.12 160.20 L 737.37 160.20 L 734.63 157.45 L 731.88 157.45 L 729.13 154.70 L 726.38 151.95 L 723.63 151.95 L 720.88 149.20 L 718.13 146.45 L 715.39 146.45 L 712.64 143.71 L 709.89 143.71 L 707.14 140.96 L 704.39 138.21 L 701.64 138.21 L 698.90 135.46 L 696.15 135.46 L 693.40 135.46 L 690.65 132.71 L 687.90 132.71 L 685.15 129.96 L 682.40 127.21 L 679.66 127.21 L 676.91 124.47 L 674.16 124.47 L 671.41 124.47 L 668.66 121.72 L 665.91 121.72 L 663.17 118.97 L 660.42 118.97 L 657.67 116.22 L 654.92 116.22 L 652.17 116.22 L 649.42 113.47 L 646.67 113.47 L 643.93 113.47 L 641.18 110.72 L 638.43 110.72 L 635.68 110.72 L 632.93 107.98 L 630.18 107.98 L 627.44 107.98 L 624.69 107.98 L 621.94 105.23 L 619.19 105.23 L 616.44 105.23 L 613.69 102.48 L 610.94 102.48 L 608.20 102.48 L 605.45 102.48 L 602.70 99.73 L 599.95 99.73 L 597.20 99.73 L 594.45 99.73 L 591.71 99.73 L 588.96 96.98 L 586.21 96.98 L 583.46 96.98 L 580.71 96.98 L 577.96 96.98 L 575.21 96.98 L 572.47 94.23 L 569.72 94.23 L 566.97 94.23 L 564.22 94.23 L 561.47 94.23 L 558.72 94.23 L 555.98 94.23 L 553.23 91.48 L 550.48 91.48 L 547.73 91.48 L 544.98 91.48 L 542.23 91.48 L 539.48 91.48 L 536.74 91.48 L 533.99 91.48 L 531.24 91.48 L 528.49 91.48 L 525.74 91.48 L 522.99 91.48 L 520.25 91.48 L 517.50 91.48 L 514.75 91.48 L 512.00 91.48 L 509.25 91.48 L 506.50 91.48 L 503.75 91.48 L 501.01 91.48 L 498.26 91.48 L 495.51 91.48 L 492.76 91.48 L 490.01 91.48 L 487.26 91.48 L 484.52 91.48 L 481.77 91.48 L 479.02 91.48 L 476.27 91.48 L 473.52 91.48 L 470.77 91.48 L 468.02 91.48 Z" fill="#4CF286"/>
</svg>